<?xml version="1.0" encoding="UTF-8"?>
<svg width="142px" height="48px" viewBox="0 0 142 48" version="1.1" xmlns="http://www.w3.org/2000/svg" xmlns:xlink="http://www.w3.org/1999/xlink">
    <title>Group 12</title>
    <g id="Page-1" stroke="none" stroke-width="1" fill="none" fill-rule="evenodd">
        <g id="Desktop-Copy-28" transform="translate(-441.000000, -2126.000000)" fill="#0E45DE">
            <g id="Group-12" transform="translate(441.000000, 2126.000000)">
                <polygon id="Star" points="71 25.5 61.0076507 30.7532889 62.9160196 19.6266445 54.8320392 11.7467111 66.0038254 10.1233555 71 0 75.9961746 10.1233555 87.1679608 11.7467111 79.0839804 19.6266445 80.9923493 30.7532889"></polygon>
                <polygon id="Star-Copy-9" points="17 39.5 7.00765071 44.7532889 8.91601961 33.6266445 0.832039223 25.7467111 12.0038254 24.1233555 17 14 21.9961746 24.1233555 33.1679608 25.7467111 25.0839804 33.6266445 26.9923493 44.7532889"></polygon>
                <polygon id="Star-Copy-10" points="125 39.5 115.007651 44.7532889 116.91602 33.6266445 108.832039 25.7467111 120.003825 24.1233555 125 14 129.996175 24.1233555 141.167961 25.7467111 133.08398 33.6266445 134.992349 44.7532889"></polygon>
            </g>
        </g>
    </g>
</svg>