<?xml version="1.0" encoding="UTF-8"?>
<svg width="95px" height="25px" viewBox="0 0 95 25" version="1.1" xmlns="http://www.w3.org/2000/svg" xmlns:xlink="http://www.w3.org/1999/xlink">
    <title>Group 11</title>
    <g id="Page-1" stroke="none" stroke-width="1" fill="none" fill-rule="evenodd">
        <g id="Desktop-Copy-28" transform="translate(-145.000000, -819.000000)">
            <g id="Group-11" transform="translate(145.000000, 821.000000)">
                <polygon id="Star" fill="#FFFFFF" points="11.5 17.25 4.7404696 20.8036954 6.03142503 13.2768477 0.562850063 7.94630456 8.1202348 6.84815228 11.5 0 14.8797652 6.84815228 22.4371499 7.94630456 16.968575 13.2768477 18.2595304 20.8036954"></polygon>
                <polygon id="Star-Copy" stroke="#FFFFFF" points="47.5 17.25 40.7404696 20.8036954 42.031425 13.2768477 36.5628501 7.94630456 44.1202348 6.84815228 47.5 0 50.8797652 6.84815228 58.4371499 7.94630456 52.968575 13.2768477 54.2595304 20.8036954"></polygon>
                <polygon id="Star-Copy-2" stroke="#FFFFFF" points="82.5 17.25 75.7404696 20.8036954 77.031425 13.2768477 71.5628501 7.94630456 79.1202348 6.84815228 82.5 0 85.8797652 6.84815228 93.4371499 7.94630456 87.968575 13.2768477 89.2595304 20.8036954"></polygon>
            </g>
        </g>
    </g>
</svg>